grf
version=1
nRows=9
nColumns=46
inDegrees=yes
endheader
time	ground_force_1_vx	ground_force_1_vy	ground_force_1_vz	ground_force_1_px	ground_force_1_py	ground_force_1_pz	ground_moment_1_mx	ground_moment_1_my	ground_moment_1_mz	ground_force_2_vx	ground_force_2_vy	ground_force_2_vz	ground_force_2_px	ground_force_2_py	ground_force_2_pz	ground_moment_2_mx	ground_moment_2_my	ground_moment_2_mz	ground_force_3_vx	ground_force_3_vy	ground_force_3_vz	ground_force_3_px	ground_force_3_py	ground_force_3_pz	ground_moment_3_mx	ground_moment_3_my	ground_moment_3_mz	ground_force_4_vx	ground_force_4_vy	ground_force_4_vz	ground_force_4_px	ground_force_4_py	ground_force_4_pz	ground_moment_4_mx	ground_moment_4_my	ground_moment_4_mz	ground_force_5_vx	ground_force_5_vy	ground_force_5_vz	ground_force_5_px	ground_force_5_py	ground_force_5_pz	ground_moment_5_mx	ground_moment_5_my	ground_moment_5_mz
0.576000	0.000000	0.000000	0.000000	0.000000	0.000000	0.000000	0.000000	0.000000	0.000000	0.000000	0.000000	0.000000	0.000000	0.000000	0.000000	0.000000	0.000000	0.000000	0.000000	0.000000	0.000000	0.000000	0.000000	0.000000	0.000000	0.000000	0.000000	7.856432	440.331800	-71.454562	0.175963	0.000000	-0.905000	0.000000	2.486204	0.000000	-7.562073	442.316954	77.933853	0.219223	0.000000	-1.575107	0.000000	-3.746565	-0.000000
0.576500	0.000000	0.000000	0.000000	0.000000	0.000000	0.000000	0.000000	0.000000	0.000000	0.000000	0.000000	0.000000	0.000000	0.000000	0.000000	0.000000	0.000000	0.000000	0.000000	0.000000	0.000000	0.000000	0.000000	0.000000	0.000000	0.000000	0.000000	7.876448	440.224385	-71.384144	0.175974	0.000000	-0.904987	0.000000	2.497728	0.000000	-7.523167	442.459612	77.862228	0.219189	0.000000	-1.575076	0.000000	-3.754488	-0.000000
0.577000	0.000000	0.000000	0.000000	0.000000	0.000000	0.000000	0.000000	0.000000	0.000000	0.000000	0.000000	0.000000	0.000000	0.000000	0.000000	0.000000	0.000000	0.000000	0.000000	0.000000	0.000000	0.000000	0.000000	0.000000	0.000000	0.000000	0.000000	7.895588	440.120780	-71.316695	0.175984	0.000000	-0.904974	0.000000	2.509332	0.000000	-7.483123	442.605984	77.792609	0.219154	0.000000	-1.575046	0.000000	-3.762513	-0.000000
0.577500	0.000000	0.000000	0.000000	0.000000	0.000000	0.000000	0.000000	0.000000	0.000000	0.000000	0.000000	0.000000	0.000000	0.000000	0.000000	0.000000	0.000000	0.000000	0.000000	0.000000	0.000000	0.000000	0.000000	0.000000	0.000000	0.000000	0.000000	7.913805	440.020969	-71.252253	0.175995	0.000000	-0.904959	0.000000	2.521009	0.000000	-7.441979	442.756534	77.725137	0.219120	0.000000	-1.575016	0.000000	-3.770643	-0.000000
0.578000	0.000000	0.000000	0.000000	0.000000	0.000000	0.000000	0.000000	0.000000	0.000000	0.000000	0.000000	0.000000	0.000000	0.000000	0.000000	0.000000	0.000000	0.000000	0.000000	0.000000	0.000000	0.000000	0.000000	0.000000	0.000000	0.000000	0.000000	7.931050	439.924927	-71.190853	0.176006	0.000000	-0.904944	0.000000	2.532747	0.000000	-7.399770	442.911707	77.659952	0.219085	0.000000	-1.574986	0.000000	-3.778884	-0.000000
0.578500	0.000000	0.000000	0.000000	0.000000	0.000000	0.000000	0.000000	0.000000	0.000000	0.000000	0.000000	0.000000	0.000000	0.000000	0.000000	0.000000	0.000000	0.000000	0.000000	0.000000	0.000000	0.000000	0.000000	0.000000	0.000000	0.000000	0.000000	7.947266	439.832612	-71.132524	0.176017	0.000000	-0.904928	0.000000	2.544535	0.000000	-7.356531	443.071930	77.597185	0.219051	0.000000	-1.574957	0.000000	-3.787238	-0.000000
0.579000	0.000000	0.000000	0.000000	0.000000	0.000000	0.000000	0.000000	0.000000	0.000000	0.000000	0.000000	0.000000	0.000000	0.000000	0.000000	0.000000	0.000000	0.000000	0.000000	0.000000	0.000000	0.000000	0.000000	0.000000	0.000000	0.000000	0.000000	7.962397	439.743971	-71.077295	0.176029	0.000000	-0.904912	0.000000	2.556364	0.000000	-7.312302	443.237607	77.536959	0.219016	0.000000	-1.574927	0.000000	-3.795710	-0.000000
0.579500	0.000000	0.000000	0.000000	0.000000	0.000000	0.000000	0.000000	0.000000	0.000000	0.000000	0.000000	0.000000	0.000000	0.000000	0.000000	0.000000	0.000000	0.000000	0.000000	0.000000	0.000000	0.000000	0.000000	0.000000	0.000000	0.000000	0.000000	7.976382	439.658925	-71.025188	0.176042	0.000000	-0.904895	0.000000	2.568221	0.000000	-7.267125	443.409109	77.479383	0.218981	0.000000	-1.574899	0.000000	-3.804304	-0.000000
0.580000	0.000000	0.000000	0.000000	0.000000	0.000000	0.000000	0.000000	0.000000	0.000000	0.000000	0.000000	0.000000	0.000000	0.000000	0.000000	0.000000	0.000000	0.000000	0.000000	0.000000	0.000000	0.000000	0.000000	0.000000	0.000000	0.000000	0.000000	7.989163	439.577375	-70.976222	0.176054	0.000000	-0.904877	0.000000	2.580095	0.000000	-7.221047	443.586770	77.424554	0.218946	0.000000	-1.574870	0.000000	-3.813025	-0.000000
